<?xml version="1.0" encoding="UTF-8" standalone="no"?><svg xmlns:dc="http://purl.org/dc/elements/1.1/" xmlns:cc="http://creativecommons.org/ns#" xmlns:rdf="http://www.w3.org/1999/02/22-rdf-syntax-ns#" xmlns:svg="http://www.w3.org/2000/svg" xmlns="http://www.w3.org/2000/svg" viewBox="0 0 361.33334 277.33334" height="277.33334" width="361.33334" xml:space="preserve" id="svg2" version="1.1"><metadata id="metadata8"><rdf:RDF><cc:Work rdf:about=""><dc:format>image/svg+xml</dc:format><dc:type rdf:resource="http://purl.org/dc/dcmitype/StillImage" /></cc:Work></rdf:RDF></metadata><defs id="defs6" /><g transform="matrix(1.3333333,0,0,-1.3333333,0,277.33333)" id="g10"><g transform="scale(0.1)" id="g12"><path id="path14" style="fill:#262626;fill-opacity:1;fill-rule:evenodd;stroke:none" d="M 1356.25,30.9805 C 1244.61,31.6406 1138.44,48.8281 1037.77,82.5 936.762,116.129 844.262,163.828 760.27,225.469 675.941,287.148 602.77,359.801 540.738,443.48 h -27.5 c 63.364,-88.011 138.364,-164.5 225,-229.5 87.032,-65 182.703,-115.3511 287.032,-151.0112 104.65,-35.668 215,-53.62896 330.98,-53.98833 116.33,0.35937 226.68,18.32033 331.02,53.98833 104.64,35.6601 200.31,86.0112 286.99,151.0112 86.99,65 161.99,141.489 225,229.5 h -27.5 C 2109.77,359.801 2036.6,287.148 1952.27,225.469 1868.24,163.828 1775.94,116.129 1675.27,82.5 1574.61,48.8281 1468.24,31.6406 1356.25,30.9805 M 345.738,1115 h -22.5 c 7.703,107.97 30.672,210.31 69.032,306.99 38.32,96.64 89.332,185 153,265 63.64,80.31 137.5,149.85 221.492,208.48 83.976,58.67 175.816,104.02 275.508,136.01 99.64,32 204.33,48.17 313.98,48.52 110,-0.35 214.69,-16.52 314.02,-48.52 99.65,-31.99 191.49,-77.34 275.47,-136.01 84.34,-58.63 158.36,-127.97 222.03,-207.97 63.64,-80.35 114.5,-168.87 152.5,-265.51 38.32,-96.33 61.33,-198.67 68.99,-306.99 h -21.99 c -7.66,105.66 -30.36,205.66 -68.01,300 -37.35,94.34 -87.15,180.66 -149.49,258.98 -62.35,78.32 -134.69,146.18 -217,203.52 -82.34,57.3 -172.18,101.48 -269.53,132.5 -97.3,31.33 -199.65,47.3 -306.99,47.97 -107.34,-0.31 -209.65,-16.13 -306.99,-47.5 -97.35,-31.33 -187.151,-75.67 -269.49,-132.97 -82,-57.34 -154.18,-125.2 -216.532,-203.52 -62.297,-78.32 -112.297,-164.64 -150,-258.98 -37.297,-94.34 -59.797,-194.34 -67.5,-300" /><path id="path16" style="fill:#212121;fill-opacity:1;fill-rule:evenodd;stroke:none" d="m 1234.26,1402.5 h -44.49 v -78.01 h 44.49 v 78.01 m 0,-215 v 77.97 h -44.49 v -77.97 h 44.49 m 730,-98.01 v 78.01 h -44.49 v -78.01 h 44.49 m -441.99,464.49 h -44.5 v -78 h 44.5 v 78 m -166.02,373.01 c -93.01,-0.35 -181.64,-14.02 -265.98,-41.01 -84.33,-26.64 -162.18,-64.65 -233.508,-113.99 -71.332,-49.02 -134.184,-107.34 -188.524,-175 -53.976,-67.34 -97.5,-141.68 -130.468,-223.01 -33,-81.32 -53.36,-167.65 -61.008,-258.98 H 742.77 v 258.98 H 954.262 V 1115 h 44.488 v 370 h 91.52 v -221.52 h 44.5 v 456.01 h 154.49 v -536.52 h 45 v 415.51 h 236.48 v -557 h 44.53 v 427 h 126.49 V 1115 h 44.49 v 110.47 h 233.52 V 1115 h 215.97 c -7.65,91.33 -27.97,177.66 -60.97,258.98 -33.01,81.33 -76.53,155.67 -130.51,223.01 -54.34,67.35 -117.15,125.67 -188.52,175 -71.33,49.34 -149.14,87.35 -233.47,113.99 -84.34,26.99 -173.01,40.66 -266.02,41.01 M 710.27,443.48 h 1292 c -54.03,-58.011 -114.85,-108.011 -182.5,-150 -67.35,-42 -140.16,-74.339 -218.52,-97 -78.01,-23 -159.65,-34.492 -245,-34.492 -85.31,0.313 -166.99,11.84 -245,34.492 -78.32,22.661 -151.328,55 -218.98,97 -67.348,41.989 -128.008,91.989 -182,150" /><path id="path18" style="fill:#262626;fill-opacity:1;fill-rule:evenodd;stroke:none" d="M 176.02,886.02 V 816.602 C 166.41,810.199 155.469,805 143.199,801.051 130.941,797.109 117.23,795.16 102.07,795.16 c -17.4997,0 -32.6208,2.852 -45.4294,8.629 C 43.8281,809.531 33.2383,817.34 24.8008,827.148 16.3711,836.949 10.1211,848.32 6.08984,861.211 2.03125,874.141 0,887.852 0,902.34 c 0,15.16 2.23047,29.34 6.71875,42.582 4.49215,13.199 11.13285,24.769 20.00005,34.687 8.871,9.922 19.8398,17.77 32.9726,23.511 13.1172,5.79 28.4297,8.68 45.8986,8.68 12.379,0 24.449,-1.25 36.172,-3.71 11.718,-2.43 22.187,-5.79 31.359,-10.078 L 166.41,975 c -6.84,4.449 -15.629,8.199 -26.41,11.172 -10.781,3.008 -22.891,4.488 -36.328,4.488 -14.2931,0 -26.3322,-2.07 -36.1329,-6.25 -9.8399,-4.14 -17.7696,-9.961 -23.8672,-17.422 -6.0508,-7.457 -10.4336,-16.476 -13.1211,-27.027 -2.6602,-10.582 -3.9922,-22.262 -3.9922,-35.039 0,-29.262 6.4102,-51.332 19.1797,-66.25 12.8125,-14.922 31.9219,-22.422 57.3127,-22.422 9.371,0 18.16,0.98 26.398,2.891 8.211,1.91 15.711,4.379 22.539,7.379 v 59.5 z m 74.21,124.18 V 880.898 c 0,-23.046 5.079,-39.566 15.2,-49.609 10.16,-10 24.179,-15.039 42.109,-15.039 17.891,0 31.992,5.039 42.231,15.039 10.23,10.043 15.351,26.563 15.351,49.609 V 1010.2 h 22.418 V 870.039 c 0,-10.469 -1.598,-20.238 -4.809,-29.301 -3.199,-9.058 -8.121,-16.949 -14.718,-23.668 -6.641,-6.718 -14.922,-11.988 -24.961,-15.859 -10.039,-3.832 -21.879,-5.742 -35.512,-5.742 -14.961,0 -27.578,1.91 -37.93,5.742 -10.347,3.871 -18.711,9.141 -25.121,15.859 -6.398,6.719 -11.047,14.61 -13.937,23.668 -2.852,9.063 -4.301,18.832 -4.301,29.301 V 1010.2 Z M 570.898,821.371 V 798.98 H 448.629 V 1010.2 H 564.488 V 987.77 H 472.66 v -65.579 h 70.391 V 899.77 H 472.66 v -78.399 z m 57.262,137.93 c 0,-5.321 1.02,-9.77 3.051,-13.281 2.027,-3.52 5.238,-6.641 9.57,-9.418 4.379,-2.77 9.918,-5.391 16.641,-7.852 6.719,-2.461 14.808,-5.27 24.18,-8.48 7.886,-2.571 15.668,-5.5 23.359,-8.821 7.699,-3.289 14.57,-7.347 20.629,-12.148 6.09,-4.813 10.93,-10.781 14.57,-17.93 3.629,-7.152 5.43,-15.82 5.43,-26.062 0,-10.899 -2.11,-20.149 -6.371,-27.848 -4.297,-7.691 -9.918,-13.91 -16.989,-18.711 -7.031,-4.801 -15.121,-8.281 -24.3,-10.391 -9.18,-2.148 -18.668,-3.199 -28.481,-3.199 -13.859,0 -26.789,1.68 -38.75,5.11 -11.91,3.402 -22.258,7.582 -31.008,12.46 l 6.719,23.36 c 4.059,-2.77 8.078,-5.391 12.141,-7.809 4.07,-2.461 8.48,-4.531 13.289,-6.25 4.801,-1.722 10.07,-3.082 15.859,-4.179 5.742,-1.051 12.34,-1.602 19.84,-1.602 9.57,0 17.813,0.859 24.609,2.582 6.832,1.719 12.383,4.098 16.641,7.188 4.301,3.082 7.383,6.789 9.301,11.05 1.91,4.262 2.89,8.828 2.89,13.75 0,7.27 -1.718,13.399 -5.121,18.399 -3.437,5 -7.847,9.332 -13.281,12.972 -5.469,3.629 -11.449,6.68 -17.93,9.098 -6.527,2.461 -12.968,4.762 -19.378,6.91 -9.18,2.973 -17.5,6.18 -24.961,9.571 -7.457,3.441 -13.789,7.46 -19.02,12.191 -5.238,4.687 -9.301,10.121 -12.187,16.289 -2.852,6.211 -4.301,13.551 -4.301,22.109 0,9.571 1.758,17.731 5.277,24.45 3.512,6.722 8.32,12.23 14.41,16.492 6.063,4.249 13.282,7.419 21.602,9.449 8.32,2.03 17.269,3.05 26.879,3.05 11.519,0 22.621,-1.18 33.281,-3.52 10.66,-2.38 19.73,-5.23 27.191,-8.671 L 726.719,975 c -3.399,2.969 -7.418,5.469 -11.989,7.5 -4.609,2.031 -9.378,3.629 -14.421,4.801 -5,1.179 -9.957,2.039 -14.879,2.578 -4.879,0.512 -9.489,0.781 -13.75,0.781 -13.442,0 -24.059,-2.5 -31.84,-7.539 -7.77,-5 -11.68,-12.922 -11.68,-23.82 z m 296.961,50.899 v -22.43 h -67.5 V 798.98 H 833.59 v 188.79 h -67.5 v 22.43 z m 49.918,-50.899 c 0,-5.321 1.012,-9.77 3.051,-13.281 2.031,-3.52 5.23,-6.641 9.609,-9.418 4.371,-2.77 9.922,-5.391 16.641,-7.852 6.71,-2.461 14.76,-5.27 24.14,-8.48 7.89,-2.571 15.66,-5.5 23.36,-8.821 7.69,-3.289 14.57,-7.347 20.62,-12.148 6.09,-4.813 10.94,-10.781 14.57,-17.93 3.63,-7.152 5.43,-15.82 5.43,-26.062 0,-10.899 -2.11,-20.149 -6.37,-27.848 -4.29,-7.691 -9.92,-13.91 -16.99,-18.711 -7.03,-4.801 -15.12,-8.281 -24.3,-10.391 -9.18,-2.148 -18.67,-3.199 -28.47,-3.199 -13.87,0 -26.799,1.68 -38.709,5.11 -11.961,3.402 -22.312,7.582 -31.062,12.46 l 6.722,23.36 c 4.059,-2.77 8.09,-5.391 12.149,-7.809 4.058,-2.461 8.48,-4.531 13.281,-6.25 4.809,-1.722 10.078,-3.082 15.859,-4.179 5.74,-1.051 12.34,-1.602 19.84,-1.602 9.57,0 17.82,0.859 24.61,2.582 6.84,1.719 12.39,4.098 16.64,7.188 4.3,3.082 7.39,6.789 9.3,11.05 1.92,4.262 2.89,8.828 2.89,13.75 0,7.27 -1.72,13.399 -5.12,18.399 -3.43,5 -7.85,9.332 -13.28,12.972 -5.47,3.629 -11.44,6.68 -17.93,9.098 -6.52,2.461 -12.97,4.762 -19.37,6.91 -9.18,2.973 -17.502,6.18 -24.959,9.571 -7.461,3.441 -13.793,7.46 -19.031,12.191 -5.23,4.687 -9.289,10.121 -12.14,16.289 -2.899,6.211 -4.34,13.551 -4.34,22.109 0,9.571 1.761,17.731 5.269,24.45 3.52,6.722 8.321,12.23 14.422,16.492 6.051,4.249 13.277,7.419 21.598,9.449 8.321,2.03 17.261,3.05 26.871,3.05 11.53,0 22.62,-1.18 33.28,-3.52 10.67,-2.38 19.73,-5.23 27.19,-8.671 L 1073.59,975 c -3.39,2.969 -7.42,5.469 -11.99,7.5 -4.57,2.031 -9.37,3.629 -14.41,4.801 -5,1.179 -9.96,2.039 -14.89,2.578 -4.88,0.512 -9.49,0.781 -13.75,0.781 -13.43,0 -24.062,-2.5 -31.831,-7.539 -7.77,-5 -11.68,-12.922 -11.68,-23.82 z M 1130.9,883.789 h 108.121 V 867.1484 H 1130.9 Z m 211.83,-84.809 -92.18,211.22 h 27.22 l 80.32,-184.341 73.28,184.341 h 25.58 l -83.83,-211.22 z m 222.07,211.22 92.82,-211.22 h -27.23 l -31.01,71.059 h -94.42 L 1476.8,798.98 h -25.59 l 84.45,211.22 z m -15.03,-26.88 -35.86,-90.898 h 75.54 z M 1805.12,821.371 V 798.98 h -118.4 v 211.22 h 23.98 V 821.371 Z m 159.37,0 V 798.98 h -122.26 v 211.22 h 115.86 v -22.43 h -91.84 v -65.579 h 70.39 V 899.77 h -70.39 V 821.371 Z M 2142.07,798.98 2033.28,971.801 V 798.98 h -23.98 v 211.22 h 29.1 l 108.79,-173.13 v 173.13 h 24.02 V 798.98 Z M 2391.05,998.012 2384.34,975 c -6.84,4.449 -15.28,8.199 -25.32,11.172 -10,3.008 -21.4,4.488 -34.22,4.488 -14.29,0 -26.36,-2.07 -36.17,-6.25 -9.8,-4.14 -17.73,-9.961 -23.83,-17.422 -6.09,-7.457 -10.46,-16.476 -13.12,-27.027 -2.66,-10.582 -3.98,-22.262 -3.98,-35.039 0,-29.262 6.36,-51.332 19.18,-66.25 12.81,-14.922 31.91,-22.422 57.26,-22.422 13.48,0 25.82,1.949 37.15,5.781 11.29,3.828 20.35,8.52 27.19,14.059 l 6.4,-21.442 c -8.55,-5.117 -18.83,-9.648 -30.9,-13.597 -12.03,-3.942 -25.62,-5.891 -40.78,-5.891 -17.5,0 -32.65,2.852 -45.43,8.629 -12.81,5.742 -23.43,13.551 -31.83,23.359 -8.44,9.801 -14.69,21.172 -18.75,34.063 -4.03,12.93 -6.06,26.641 -6.06,41.129 0,15.16 2.23,29.34 6.72,42.582 4.45,13.199 11.13,24.769 20,34.687 8.83,9.922 19.85,17.77 32.93,23.511 13.13,5.79 28.44,8.68 45.94,8.68 11.52,0 23.05,-1.25 34.57,-3.71 11.52,-2.43 21.44,-5.79 29.76,-10.078 z m 72.93,-199.032 h -23.9805 v 211.219 h 23.9805 z m 146.92,211.22 92.77,-211.22 h -27.19 l -31.05,71.059 h -94.38 l -28.16,-71.059 h -25.62 l 84.49,211.22 z M 2595.86,983.32 2560,892.422 h 75.51 z" /><path id="path20" style="fill:#0f0f0f;fill-opacity:1;fill-rule:evenodd;stroke:none" d="M 396.559,672.77 448.75,553.98 h -15.27 l -17.46,39.969 H 362.891 L 347.07,553.98 h -14.41 l 47.539,118.79 z m -8.469,-15.11 -20.16,-51.101 h 42.5 z m 86.949,-103.68 h -12.6172 v 133.211 h 12.6172 z m 65.512,85.508 c 7.34,0 13.629,-1.25 18.898,-3.707 5.281,-2.461 9.653,-5.742 13.051,-9.883 3.441,-4.136 5.941,-8.867 7.578,-14.218 1.602,-5.352 2.422,-10.942 2.422,-16.84 0,-5.891 -0.82,-11.442 -2.422,-16.641 -1.637,-5.23 -4.098,-9.801 -7.457,-13.668 -3.359,-3.91 -7.66,-6.992 -12.891,-9.301 -5.242,-2.261 -11.371,-3.39 -18.441,-3.39 -7.34,0 -13.668,1.172 -18.988,3.59 -5.352,2.379 -9.762,5.59 -13.242,9.609 -3.469,4.02 -6.047,8.672 -7.731,13.981 -1.68,5.281 -2.539,10.859 -2.539,16.718 0,5.903 0.859,11.453 2.539,16.762 1.684,5.27 4.223,9.922 7.652,13.949 3.399,4.02 7.782,7.18 13.051,9.531 5.27,2.34 11.449,3.508 18.52,3.508 z m 0.539,-78.117 c 4.808,0 8.988,0.899 12.5,2.688 3.558,1.8 6.488,4.222 8.832,7.312 2.348,3.039 4.058,6.598 5.156,10.617 1.051,3.992 1.602,8.242 1.602,12.66 0,4.571 -0.59,8.942 -1.719,13.161 -1.133,4.179 -2.891,7.89 -5.313,11.062 -2.378,3.199 -5.429,5.738 -9.058,7.649 -3.68,1.921 -8.012,2.89 -13.051,2.89 -4.918,0 -9.141,-0.89 -12.617,-2.691 -3.473,-1.797 -6.371,-4.219 -8.633,-7.231 -2.309,-2.968 -3.988,-6.476 -5.039,-10.508 -1.09,-4.019 -1.641,-8.242 -1.641,-12.691 0,-4.57 0.59,-8.949 1.719,-13.168 1.133,-4.172 2.891,-7.891 5.231,-11.133 2.351,-3.238 5.32,-5.816 8.992,-7.726 3.668,-1.922 8,-2.891 13.039,-2.891 z m 76.68,75.43 v -83.36 c 0,-6.101 -0.54,-11.961 -1.719,-17.543 -1.129,-5.589 -2.852,-10.468 -5.11,-14.687 -2.269,-4.18 -5.16,-7.5 -8.64,-9.961 -3.473,-2.461 -7.5,-3.711 -12.071,-3.711 -1.91,0 -3.242,0.191 -3.941,0.551 l -2.891,10.43 c 0.704,-0.36 2.032,-0.551 3.942,-0.551 4.109,0 7.351,1.172 9.73,3.511 2.418,2.348 4.219,5.282 5.391,8.75 1.211,3.481 1.949,7.309 2.269,11.532 0.309,4.179 0.469,8.16 0.469,11.867 v 83.172 z m -15.309,30.23 c 0,2.379 0.898,4.571 2.617,6.489 1.762,1.91 3.871,2.851 6.402,2.851 2.391,0 4.571,-0.941 6.489,-2.851 1.91,-1.918 2.89,-4.11 2.89,-6.489 0,-2.543 -0.98,-4.652 -2.89,-6.41 -1.918,-1.711 -4.098,-2.609 -6.489,-2.609 -2.531,0 -4.64,0.898 -6.402,2.609 -1.719,1.758 -2.617,3.867 -2.617,6.41 z M 708.32,553.98 h -9.879 l -1.453,14.77 h -0.738 c -1.449,-2.301 -3.359,-4.449 -5.738,-6.48 -2.422,-2.04 -5.082,-3.829 -8.012,-5.391 -2.969,-1.57 -6.129,-2.82 -9.531,-3.719 -3.438,-0.89 -6.84,-1.32 -10.199,-1.32 -7.93,0 -13.86,2.301 -17.809,6.91 -3.941,4.609 -5.941,10.43 -5.941,17.379 0,6.84 1.718,12.312 5.242,16.371 3.468,4.102 7.726,7.148 12.769,9.18 5.039,2.031 10.348,3.359 15.938,3.941 5.551,0.629 10.472,0.938 14.652,0.938 h 8.078 v 2.152 c 0,4.57 -0.621,8.051 -1.871,10.43 -1.25,2.418 -3.09,4.449 -5.469,6.129 -2.07,1.332 -4.257,2.23 -6.597,2.781 -2.352,0.539 -5.434,0.82 -9.262,0.82 -5.039,0 -9.488,-0.672 -13.32,-1.992 -3.828,-1.328 -7.578,-3.051 -11.168,-5.199 l -2.852,10.781 c 8,4.687 17.61,7.027 28.789,7.027 4.449,0 8.629,-0.386 12.571,-1.168 3.992,-0.781 7.46,-2.148 10.468,-4.058 3.481,-2.153 6.211,-5.203 8.282,-9.184 2.031,-3.949 3.05,-8.867 3.05,-14.769 z m -41.761,8.481 c 4.921,0 10.16,1.559 15.671,4.648 5.5,3.121 10,7.621 13.469,13.512 v 16.758 h -1.597 c -4.922,0 -9.84,-0.188 -14.762,-0.539 -4.93,-0.391 -9.379,-1.289 -13.399,-2.699 -4.031,-1.442 -7.312,-3.52 -9.812,-6.211 -2.539,-2.731 -3.789,-6.41 -3.789,-11.09 0,-4.692 1.289,-8.25 3.871,-10.711 2.578,-2.457 6.019,-3.668 10.348,-3.668 z M 805.512,553.98 H 792.93 v 54.731 c 0,7.309 -1.68,12.5 -5.039,15.551 -3.36,3.078 -7.582,4.609 -12.621,4.609 -6.129,0 -11.641,-1.883 -16.559,-5.672 -4.922,-3.789 -8.441,-9.14 -10.621,-16.129 v -53.09 h -12.578 v 82.821 h 9.879 l 1.449,-15.512 h 0.738 c 1.524,5.039 4.801,9.332 9.801,12.891 4.961,3.519 11.41,5.308 19.34,5.308 7.191,0 13.242,-1.597 18.082,-4.758 4.89,-3.21 7.969,-7.66 9.258,-13.441 1.211,2.422 2.742,4.691 4.531,6.832 1.801,2.188 3.949,4.109 6.488,5.789 2.5,1.68 5.391,3.039 8.633,4.059 3.238,1.011 6.879,1.519 10.98,1.519 3.707,0 7.258,-0.508 10.7,-1.519 3.437,-1.02 6.41,-2.699 8.988,-4.957 2.57,-2.274 4.641,-5.282 6.211,-8.992 1.558,-3.75 2.34,-8.282 2.34,-13.711 V 553.98 h -12.578 v 54.731 c 0,7.309 -1.68,12.5 -5.043,15.551 -3.36,3.078 -7.579,4.609 -12.61,4.609 -6.14,0 -11.648,-1.883 -16.57,-5.672 -4.918,-3.789 -8.43,-9.14 -10.617,-16.129 z m 97.218,0 h -12.6094 v 82.8203 H 902.73 Z m -15.308,113.051 c 0,2.379 0.859,4.571 2.617,6.489 1.723,1.91 3.871,2.851 6.371,2.851 2.418,0 4.57,-0.941 6.481,-2.851 1.91,-1.918 2.89,-4.11 2.89,-6.489 0,-2.543 -0.98,-4.652 -2.89,-6.41 -1.911,-1.711 -4.063,-2.609 -6.481,-2.609 -2.5,0 -4.648,0.898 -6.371,2.609 -1.758,1.758 -2.617,3.867 -2.617,6.41 z m 80.469,-27.543 c 10.55,0 18.711,-2.687 24.449,-8.008 5.781,-5.351 8.68,-12.89 8.68,-22.609 0,-2.031 -0.12,-4.101 -0.4,-6.211 -0.23,-2.07 -0.659,-3.601 -1.241,-4.57 h -60.668 v -1.801 c 0,-4.57 0.629,-8.949 1.801,-13.168 1.207,-4.172 3.008,-7.891 5.429,-11.133 2.379,-3.238 5.43,-5.816 9.059,-7.726 3.672,-1.922 8.012,-2.891 13.051,-2.891 2.89,0 5.699,0.309 8.469,0.969 2.781,0.672 5.39,1.531 7.929,2.539 2.5,1.019 4.852,2.109 7,3.32 2.18,1.211 4.102,2.391 5.781,3.602 l 2.149,-10.242 c -1.57,-0.969 -3.481,-2.028 -5.75,-3.161 -2.301,-1.128 -4.801,-2.187 -7.578,-3.168 -2.77,-0.929 -5.781,-1.75 -9.102,-2.421 -3.277,-0.661 -6.719,-0.969 -10.347,-0.969 -6.723,0 -12.653,1.172 -17.813,3.512 -5.16,2.308 -9.449,5.507 -12.93,9.527 -3.519,4.031 -6.129,8.672 -7.929,13.949 -1.801,5.274 -2.7,10.781 -2.7,16.563 0,5.859 0.899,11.488 2.782,16.839 1.867,5.309 4.609,10.04 8.199,14.098 3.59,4.102 8.051,7.301 13.398,9.652 5.352,2.34 11.442,3.508 18.282,3.508 z M 967.34,629.41 c -7.93,0 -14.059,-2.07 -18.43,-6.211 -4.422,-4.14 -7.39,-9.328 -8.949,-15.578 h 49.141 c 0.16,0.617 0.199,1.129 0.199,1.641 0,0.468 0,1.008 0,1.597 0,3.012 -0.59,5.661 -1.801,8.012 -1.211,2.34 -2.809,4.289 -4.84,5.859 -2.07,1.559 -4.422,2.731 -7.039,3.508 -2.652,0.782 -5.391,1.172 -8.281,1.172 z m 127.27,-75.43 h -12.62 v 54.731 c 0,7.187 -1.6,12.34 -4.84,15.469 -3.24,3.121 -7.38,4.691 -12.42,4.691 -3.01,0 -5.98,-0.473 -8.91,-1.449 -2.97,-0.973 -5.66,-2.383 -8.2,-4.223 -2.5,-1.871 -4.73,-4.14 -6.64,-6.828 -1.96,-2.699 -3.44,-5.82 -4.53,-9.301 v -53.09 h -12.58 v 82.821 h 9.88 l 1.45,-15.512 h 0.74 c 1.52,5.039 5.04,9.332 10.43,12.891 5.39,3.519 12.11,5.308 20.15,5.308 3.83,0 7.46,-0.508 10.9,-1.519 3.4,-1.02 6.37,-2.699 8.91,-4.957 2.5,-2.274 4.53,-5.282 6.01,-8.992 1.53,-3.75 2.27,-8.282 2.27,-13.711 z m 31.13,16.571 v 57.769 h -13.86 V 635 l 14.21,1.801 2.7,25 h 9.57 v -25 h 19.41 v -8.481 h -19.41 v -57.422 c 0,-3.828 0.55,-6.367 1.68,-7.539 1.13,-1.211 2.93,-1.8 5.31,-1.8 2.77,0 5.24,0.39 7.38,1.25 2.15,0.82 4.11,1.839 5.79,3.05 l 2.5,-9.531 c -2.04,-0.976 -4.69,-1.918 -8.01,-2.887 -3.28,-0.941 -6.92,-1.453 -10.9,-1.453 -3.83,0 -6.84,0.551 -8.99,1.641 -2.14,1.062 -3.78,2.5 -4.88,4.301 -1.05,1.8 -1.76,3.832 -2.07,6.05 -0.27,2.231 -0.43,4.418 -0.43,6.571 z m 88.91,68.937 c 7.34,0 13.63,-1.25 18.9,-3.707 5.28,-2.461 9.65,-5.742 13.05,-9.883 3.44,-4.136 5.94,-8.867 7.58,-14.218 1.6,-5.352 2.42,-10.942 2.42,-16.84 0,-5.891 -0.82,-11.442 -2.42,-16.641 -1.64,-5.23 -4.1,-9.801 -7.46,-13.668 -3.36,-3.91 -7.66,-6.992 -12.89,-9.301 -5.24,-2.261 -11.37,-3.39 -18.44,-3.39 -7.34,0 -13.67,1.172 -18.98,3.59 -5.36,2.379 -9.77,5.59 -13.25,9.609 -3.47,4.02 -6.05,8.672 -7.73,13.981 -1.68,5.281 -2.54,10.859 -2.54,16.718 0,5.903 0.86,11.453 2.54,16.762 1.68,5.27 4.22,9.922 7.66,13.949 3.39,4.02 7.77,7.18 13.04,9.531 5.28,2.34 11.45,3.508 18.52,3.508 z m 0.55,-78.117 c 4.8,0 8.98,0.899 12.5,2.688 3.55,1.8 6.48,4.222 8.82,7.312 2.35,3.039 4.07,6.598 5.12,10.617 1.09,3.992 1.64,8.242 1.64,12.66 0,4.571 -0.58,8.942 -1.72,13.161 -1.13,4.179 -2.89,7.89 -5.31,11.062 -2.38,3.199 -5.43,5.738 -9.06,7.649 -3.67,1.921 -8.05,2.89 -13.09,2.89 -4.88,0 -9.1,-0.89 -12.58,-2.691 -3.47,-1.797 -6.36,-4.219 -8.63,-7.231 -2.3,-2.968 -3.98,-6.476 -5.04,-10.508 -1.09,-4.019 -1.64,-8.242 -1.64,-12.691 0,-4.57 0.59,-8.949 1.72,-13.168 1.13,-4.172 2.89,-7.891 5.23,-11.133 2.35,-3.238 5.32,-5.816 8.99,-7.726 3.67,-1.922 8.01,-2.891 13.05,-2.891 z m 88.39,68.039 c -5.78,0 -9.96,-1.051 -12.54,-3.16 -2.57,-2.109 -3.86,-4.961 -3.86,-8.551 0,-1.179 0.19,-2.469 0.54,-3.789 0.36,-1.289 1.06,-2.539 2.07,-3.68 1.02,-1.128 2.43,-2.218 4.15,-3.242 1.75,-1.008 4.06,-1.828 6.95,-2.418 l 12.77,-2.89 c 5.04,-1.09 9.06,-2.539 12.15,-4.41 3.05,-1.84 5.43,-3.872 7.11,-6.02 1.68,-2.148 2.77,-4.371 3.32,-6.559 0.55,-2.23 0.82,-4.3 0.82,-6.211 0,-3.75 -0.74,-7.23 -2.27,-10.468 -1.48,-3.242 -3.67,-6.063 -6.48,-8.442 -2.81,-2.422 -6.25,-4.3 -10.35,-5.66 -4.06,-1.41 -8.63,-2.07 -13.67,-2.07 -6.37,0 -12.23,0.93 -17.66,2.769 -5.39,1.871 -9.69,3.942 -12.93,6.211 l 3.24,11.719 c 4.3,-3.988 9.1,-6.84 14.38,-8.668 5.27,-1.801 10.04,-2.699 14.22,-2.699 6.01,0 10.58,1.488 13.71,4.418 3.08,2.93 4.65,6.051 4.65,9.289 0,1.062 -0.04,2.312 -0.16,3.672 -0.12,1.371 -0.63,2.777 -1.45,4.219 -0.85,1.449 -2.1,2.82 -3.78,4.07 -1.68,1.25 -4.07,2.262 -7.19,2.961 l -17.31,4.34 c -3.94,0.937 -7.18,2.187 -9.68,3.75 -2.54,1.558 -4.54,3.281 -5.94,5.16 -1.45,1.828 -2.46,3.828 -3.09,5.929 -0.58,2.11 -0.9,4.219 -0.9,6.372 0,7.347 2.74,13.168 8.21,17.578 5.47,4.371 12.73,6.558 21.87,6.558 4.65,0 9.73,-0.617 15.12,-1.91 5.39,-1.25 9.96,-3.09 13.67,-5.469 l -3.44,-10.82 c -2.38,2.07 -5.93,3.91 -10.7,5.59 -4.73,1.672 -9.92,2.531 -15.55,2.531 z m 129.57,-75.43 -51.83,118.79 h 15.31 l 45.2,-103.668 41.21,103.668 h 14.37 l -47.15,-118.79 z m 134.85,0 h -9.92 l -1.45,14.77 h -0.7 c -1.45,-2.301 -3.36,-4.449 -5.74,-6.48 -2.43,-2.04 -5.08,-3.829 -8.01,-5.391 -2.97,-1.57 -6.14,-2.82 -9.57,-3.719 -3.4,-0.89 -6.8,-1.32 -10.16,-1.32 -7.93,0 -13.87,2.301 -17.81,6.91 -3.99,4.609 -5.94,10.43 -5.94,17.379 0,6.84 1.72,12.312 5.2,16.371 3.47,4.102 7.73,7.148 12.81,9.18 5.04,2.031 10.31,3.359 15.9,3.941 5.58,0.629 10.47,0.938 14.68,0.938 h 8.09 v 2.152 c 0,4.57 -0.62,8.051 -1.87,10.43 -1.25,2.418 -3.09,4.449 -5.51,6.129 -2.03,1.332 -4.22,2.23 -6.56,2.781 -2.35,0.539 -5.43,0.82 -9.26,0.82 -5.04,0 -9.49,-0.672 -13.32,-1.992 -3.83,-1.328 -7.58,-3.051 -11.17,-5.199 l -2.9,10.781 c 8.05,4.687 17.66,7.027 28.83,7.027 4.42,0 8.64,-0.386 12.58,-1.168 3.99,-0.781 7.46,-2.148 10.43,-4.058 3.52,-2.153 6.25,-5.203 8.28,-9.184 2.07,-3.949 3.09,-8.867 3.09,-14.769 z m -41.76,8.481 c 4.92,0 10.12,1.559 15.66,4.648 5.51,3.121 10,7.621 13.48,13.512 v 16.758 h -1.6 c -4.92,0 -9.84,-0.188 -14.77,-0.539 -4.92,-0.391 -9.37,-1.289 -13.4,-2.699 -4.02,-1.442 -7.3,-3.52 -9.84,-6.211 -2.5,-2.731 -3.75,-6.41 -3.75,-11.09 0,-4.692 1.29,-8.25 3.87,-10.711 2.58,-2.457 6.01,-3.668 10.35,-3.668 z m 136.6,69.809 -3.05,-10.59 c -2.77,2.031 -6.71,3.871 -11.87,5.468 -5.16,1.641 -10.31,2.422 -15.51,2.422 -5.27,0 -9.72,-0.898 -13.4,-2.691 -3.67,-1.801 -6.68,-4.18 -9.1,-7.188 -2.38,-3.011 -4.14,-6.453 -5.19,-10.351 -1.1,-3.91 -1.64,-7.969 -1.64,-12.149 0,-4.691 0.66,-9.179 1.99,-13.519 1.33,-4.293 3.28,-8.082 5.86,-11.332 2.58,-3.238 5.74,-5.82 9.53,-7.731 3.79,-1.91 8.2,-2.89 13.24,-2.89 4.81,0 9.73,1.011 14.84,3.051 5.08,2.07 9.34,4.64 12.7,7.769 l 2.5,-11.719 c -3.36,-2.148 -7.93,-4.179 -13.75,-6.129 -5.82,-1.921 -12.03,-2.851 -18.63,-2.851 -6.96,0 -13.05,1.172 -18.28,3.59 -5.24,2.379 -9.54,5.59 -12.97,9.609 -3.4,4.02 -5.98,8.711 -7.74,14.063 -1.72,5.347 -2.61,11.019 -2.61,16.988 0,5.789 0.82,11.25 2.46,16.488 1.6,5.231 4.14,9.844 7.61,13.871 3.52,4.02 7.93,7.18 13.32,9.531 5.43,2.34 11.92,3.508 19.46,3.508 5.78,0 11.4,-0.66 16.91,-1.988 5.55,-1.328 9.96,-3.051 13.32,-5.23 z m 84.81,-78.29 h -9.93 l -1.44,14.77 h -0.7 c -1.45,-2.301 -3.36,-4.449 -5.79,-6.48 -2.38,-2.04 -5.03,-3.829 -8,-5.391 -2.93,-1.57 -6.1,-2.82 -9.53,-3.719 -3.4,-0.89 -6.8,-1.32 -10.16,-1.32 -7.93,0 -13.87,2.301 -17.81,6.91 -3.99,4.609 -5.94,10.43 -5.94,17.379 0,6.84 1.72,12.312 5.19,16.371 3.48,4.102 7.74,7.148 12.78,9.18 5.04,2.031 10.35,3.359 15.94,3.941 5.58,0.629 10.46,0.938 14.68,0.938 h 8.09 v 2.152 c 0,4.57 -0.63,8.051 -1.88,10.43 -1.28,2.418 -3.08,4.449 -5.5,6.129 -2.04,1.332 -4.22,2.23 -6.57,2.781 -2.34,0.539 -5.43,0.82 -9.25,0.82 -5.04,0 -9.5,-0.672 -13.32,-1.992 -3.87,-1.328 -7.58,-3.051 -11.18,-5.199 l -2.89,10.781 c 8.05,4.687 17.66,7.027 28.79,7.027 4.46,0 8.67,-0.386 12.62,-1.168 3.94,-0.781 7.42,-2.148 10.43,-4.058 3.48,-2.153 6.25,-5.203 8.28,-9.184 2.03,-3.949 3.09,-8.867 3.09,-14.769 z m -41.76,8.481 c 4.88,0 10.12,1.559 15.62,4.648 5.55,3.121 10.04,7.621 13.52,13.512 v 16.758 h -1.6 c -4.92,0 -9.85,-0.188 -14.77,-0.539 -4.92,-0.391 -9.41,-1.289 -13.44,-2.699 -4.02,-1.442 -7.26,-3.52 -9.8,-6.211 -2.5,-2.731 -3.79,-6.41 -3.79,-11.09 0,-4.692 1.33,-8.25 3.91,-10.711 2.57,-2.457 6.01,-3.668 10.35,-3.668 z m 136.6,69.809 -3.05,-10.59 c -2.77,2.031 -6.72,3.871 -11.87,5.468 -5.2,1.641 -10.35,2.422 -15.51,2.422 -5.27,0 -9.73,-0.898 -13.4,-2.691 -3.67,-1.801 -6.68,-4.18 -9.1,-7.188 -2.38,-3.011 -4.14,-6.453 -5.19,-10.351 -1.1,-3.91 -1.65,-7.969 -1.65,-12.149 0,-4.691 0.67,-9.179 2,-13.519 1.32,-4.293 3.28,-8.082 5.86,-11.332 2.57,-3.238 5.74,-5.82 9.53,-7.731 3.79,-1.91 8.16,-2.89 13.24,-2.89 4.76,0 9.73,1.011 14.84,3.051 5.08,2.07 9.34,4.64 12.7,7.769 l 2.5,-11.719 c -3.36,-2.148 -7.93,-4.179 -13.75,-6.129 -5.82,-1.921 -12.03,-2.851 -18.63,-2.851 -7,0 -13.05,1.172 -18.29,3.59 -5.23,2.379 -9.53,5.59 -12.96,9.609 -3.4,4.02 -5.98,8.711 -7.74,14.063 -1.76,5.347 -2.62,11.019 -2.62,16.988 0,5.789 0.82,11.25 2.43,16.488 1.64,5.231 4.18,9.844 7.65,13.871 3.48,4.02 7.93,7.18 13.32,9.531 5.39,2.34 11.88,3.508 19.46,3.508 5.74,0 11.4,-0.66 16.91,-1.988 5.51,-1.328 9.96,-3.051 13.32,-5.23 z m 34.92,-78.29 h -12.6211 v 82.8203 h 12.6211 z m -15.31,113.051 c 0,2.379 0.9,4.571 2.62,6.489 1.75,1.91 3.86,2.851 6.4,2.851 2.39,0 4.53,-0.941 6.49,-2.851 1.91,-1.918 2.85,-4.11 2.85,-6.489 0,-2.543 -0.94,-4.652 -2.85,-6.41 -1.96,-1.711 -4.1,-2.609 -6.49,-2.609 -2.54,0 -4.65,0.898 -6.4,2.609 -1.72,1.758 -2.62,3.867 -2.62,6.41 z m 79.77,-27.543 c 7.3,0 13.59,-1.25 18.86,-3.707 5.31,-2.461 9.65,-5.742 13.09,-9.883 3.4,-4.136 5.94,-8.867 7.54,-14.218 1.64,-5.352 2.42,-10.942 2.42,-16.84 0,-5.891 -0.78,-11.442 -2.42,-16.641 -1.6,-5.23 -4.1,-9.801 -7.46,-13.668 -3.36,-3.91 -7.66,-6.992 -12.89,-9.301 -5.2,-2.261 -11.37,-3.39 -18.44,-3.39 -7.31,0 -13.63,1.172 -18.99,3.59 -5.35,2.379 -9.76,5.59 -13.24,9.609 -3.47,4.02 -6.05,8.672 -7.73,13.981 -1.68,5.281 -2.5,10.859 -2.5,16.718 0,5.903 0.82,11.453 2.5,16.762 1.68,5.27 4.22,9.922 7.65,13.949 3.4,4.02 7.78,7.18 13.05,9.531 5.27,2.34 11.45,3.508 18.56,3.508 z m 0.5,-78.117 c 4.81,0 8.99,0.899 12.54,2.688 3.52,1.8 6.49,4.222 8.79,7.312 2.34,3.039 4.06,6.598 5.16,10.617 1.05,3.992 1.6,8.242 1.6,12.66 0,4.571 -0.55,8.942 -1.68,13.161 -1.17,4.179 -2.93,7.89 -5.31,11.062 -2.43,3.199 -5.43,5.738 -9.1,7.649 -3.68,1.921 -8.01,2.89 -13.05,2.89 -4.92,0 -9.14,-0.89 -12.62,-2.691 -3.48,-1.797 -6.37,-4.219 -8.63,-7.231 -2.27,-2.968 -3.95,-6.476 -5.04,-10.508 -1.09,-4.019 -1.6,-8.242 -1.6,-12.691 0,-4.57 0.54,-8.949 1.68,-13.168 1.17,-4.172 2.89,-7.891 5.23,-11.133 2.35,-3.238 5.35,-5.816 8.99,-7.726 3.67,-1.922 8,-2.891 13.04,-2.891 z m 134.85,-7.391 h -12.62 v 54.731 c 0,7.187 -1.6,12.34 -4.84,15.469 -3.25,3.121 -7.39,4.691 -12.43,4.691 -3,0 -5.97,-0.473 -8.9,-1.449 -2.93,-0.973 -5.67,-2.383 -8.21,-4.223 -2.5,-1.871 -4.72,-4.14 -6.64,-6.828 -1.95,-2.699 -3.43,-5.82 -4.53,-9.301 v -53.09 h -12.58 v 82.821 h 9.89 l 1.44,-15.512 h 0.74 c 1.57,5.039 5.04,9.332 10.43,12.891 5.4,3.519 12.11,5.308 20.16,5.308 3.83,0 7.46,-0.508 10.9,-1.519 3.4,-1.02 6.37,-2.699 8.91,-4.957 2.5,-2.274 4.53,-5.282 6.01,-8.992 1.52,-3.75 2.27,-8.282 2.27,-13.711 z m 89.8,0 h -9.88 l -1.45,14.77 h -0.74 c -1.41,-2.301 -3.36,-4.449 -5.74,-6.48 -2.38,-2.04 -5.08,-3.829 -8.01,-5.391 -2.93,-1.57 -6.13,-2.82 -9.53,-3.719 -3.44,-0.89 -6.84,-1.32 -10.2,-1.32 -7.89,0 -13.82,2.301 -17.81,6.91 -3.94,4.609 -5.94,10.43 -5.94,17.379 0,6.84 1.76,12.312 5.24,16.371 3.48,4.102 7.73,7.148 12.77,9.18 5.04,2.031 10.35,3.359 15.94,3.941 5.59,0.629 10.47,0.938 14.65,0.938 h 8.12 v 2.152 c 0,4.57 -0.62,8.051 -1.91,10.43 -1.25,2.418 -3.09,4.449 -5.47,6.129 -2.03,1.332 -4.26,2.23 -6.56,2.781 -2.35,0.539 -5.43,0.82 -9.3,0.82 -5.04,0 -9.45,-0.672 -13.32,-1.992 -3.83,-1.328 -7.54,-3.051 -11.13,-5.199 l -2.89,10.781 c 8.04,4.687 17.61,7.027 28.79,7.027 4.45,0 8.63,-0.386 12.61,-1.168 3.95,-0.781 7.43,-2.148 10.43,-4.058 3.48,-2.153 6.25,-5.203 8.28,-9.184 2.04,-3.949 3.05,-8.867 3.05,-14.769 z m -41.76,8.481 c 4.93,0 10.16,1.559 15.67,4.648 5.51,3.121 10.04,7.621 13.51,13.512 v 16.758 h -1.64 c -4.92,0 -9.84,-0.188 -14.76,-0.539 -4.93,-0.391 -9.38,-1.289 -13.4,-2.699 -4.03,-1.442 -7.31,-3.52 -9.81,-6.211 -2.54,-2.731 -3.79,-6.41 -3.79,-11.09 0,-4.692 1.29,-8.25 3.87,-10.711 2.58,-2.457 6.06,-3.668 10.35,-3.668 z m 82.62,-8.481 h -12.582 v 133.211 h 12.582 z m 66.25,85.508 c 10.55,0 18.71,-2.687 24.49,-8.008 5.75,-5.351 8.64,-12.89 8.64,-22.609 0,-2.031 -0.12,-4.101 -0.36,-6.211 -0.27,-2.07 -0.66,-3.601 -1.29,-4.57 h -60.66 v -1.801 c 0,-4.57 0.63,-8.949 1.84,-13.168 1.17,-4.172 2.97,-7.891 5.39,-11.133 2.38,-3.238 5.43,-5.816 9.1,-7.726 3.63,-1.922 8.01,-2.891 13.05,-2.891 2.85,0 5.7,0.309 8.43,0.969 2.78,0.672 5.39,1.531 7.93,2.539 2.5,1.019 4.85,2.109 7.03,3.32 2.15,1.211 4.07,2.391 5.75,3.602 l 2.14,-10.242 c -1.56,-0.969 -3.47,-2.028 -5.74,-3.161 -2.26,-1.128 -4.8,-2.187 -7.58,-3.168 -2.73,-0.929 -5.78,-1.75 -9.06,-2.421 -3.32,-0.661 -6.76,-0.969 -10.35,-0.969 -6.72,0 -12.66,1.172 -17.81,3.512 -5.2,2.308 -9.49,5.507 -12.97,9.527 -3.48,4.031 -6.13,8.672 -7.93,13.949 -1.8,5.274 -2.7,10.781 -2.7,16.563 0,5.859 0.94,11.488 2.78,16.839 1.87,5.309 4.61,10.04 8.2,14.098 3.59,4.102 8.09,7.301 13.4,9.652 5.35,2.34 11.44,3.508 18.28,3.508 z m -0.55,-10.078 c -7.93,0 -14.06,-2.07 -18.43,-6.211 -4.38,-4.14 -7.35,-9.328 -8.91,-15.578 h 49.14 c 0.12,0.617 0.16,1.129 0.16,1.641 0,0.468 0,1.008 0,1.597 0,3.012 -0.59,5.661 -1.8,8.012 -1.17,2.34 -2.81,4.289 -4.84,5.859 -2.03,1.559 -4.38,2.731 -7.03,3.508 -2.62,0.782 -5.4,1.172 -8.29,1.172 z m 80.82,0 c -5.74,0 -9.92,-1.051 -12.5,-3.16 -2.57,-2.109 -3.86,-4.961 -3.86,-8.551 0,-1.179 0.15,-2.469 0.54,-3.789 0.36,-1.289 1.06,-2.539 2.07,-3.68 1.02,-1.128 2.39,-2.218 4.14,-3.242 1.72,-1.008 4.03,-1.828 6.92,-2.418 l 12.77,-2.89 c 5.04,-1.09 9.1,-2.539 12.15,-4.41 3.09,-1.84 5.43,-3.872 7.11,-6.02 1.68,-2.148 2.81,-4.371 3.36,-6.559 0.51,-2.23 0.78,-4.3 0.78,-6.211 0,-3.75 -0.74,-7.23 -2.23,-10.468 -1.52,-3.242 -3.67,-6.063 -6.48,-8.442 -2.81,-2.422 -6.29,-4.3 -10.35,-5.66 -4.1,-1.41 -8.63,-2.07 -13.67,-2.07 -6.37,0 -12.27,0.93 -17.66,2.769 -5.39,1.871 -9.73,3.942 -12.97,6.211 l 3.24,11.719 c 4.34,-3.988 9.14,-6.84 14.42,-8.668 5.27,-1.801 10,-2.699 14.22,-2.699 5.97,0 10.54,1.488 13.67,4.418 3.12,2.93 4.69,6.051 4.69,9.289 0,1.062 -0.08,2.312 -0.2,3.672 -0.12,1.371 -0.59,2.777 -1.45,4.219 -0.82,1.449 -2.07,2.82 -3.74,4.07 -1.68,1.25 -4.11,2.262 -7.23,2.961 l -17.27,4.34 c -3.94,0.937 -7.18,2.187 -9.72,3.75 -2.5,1.558 -4.5,3.281 -5.94,5.16 -1.45,1.828 -2.46,3.828 -3.05,5.929 -0.62,2.11 -0.9,4.219 -0.9,6.372 0,7.347 2.74,13.168 8.17,17.578 5.47,4.371 12.77,6.558 21.87,6.558 4.69,0 9.73,-0.617 15.12,-1.91 5.43,-1.25 9.96,-3.09 13.67,-5.469 l -3.4,-10.82 c -2.42,2.07 -5.97,3.91 -10.7,5.59 -4.77,1.672 -9.92,2.531 -15.59,2.531 z" /></g></g></svg>